<?xml version="1.0" encoding="UTF-8" standalone="no"?>
<!DOCTYPE svg PUBLIC "-//W3C//DTD SVG 1.1//EN" "http://www.w3.org/Graphics/SVG/1.1/DTD/svg11.dtd">

<svg height="100%" stroke-miterlimit="10" style="fill-rule:nonzero;clip-rule:evenodd;stroke-linecap:round;stroke-linejoin:round;" version="1.1" viewBox="0 0 50 50" width="100%" xml:space="preserve" xmlns="http://www.w3.org/2000/svg" xmlns:xlink="http://www.w3.org/1999/xlink">
  <defs/>

  <g>
    <path d="M24.9451 37.8789C24.9451 37.8789 11.4452 35.5544 14.6118 21.7831C16.5388 13.4029 26.4268 10.4953 29.8926 10.4943C29.2896 15.7118 34.0733 21.3654 33.5054 27.3398C32.9733 32.9321 27.8651 36.1884 27.8651 36.1884" fill="none" opacity="1" stroke="#68c40c" stroke-linecap="round" stroke-linejoin="round" stroke-width="2"/>
    <path d="M28.2981 42.4625C25.4763 39.1969 22.1348 32.9993 21.9163 27.8069C21.6547 21.5817 24.2245 17.7447 24.2245 17.7447" fill="none" opacity="1" stroke="#68c40c" stroke-linecap="round" stroke-linejoin="round" stroke-width="2"/>
    <path d="M14 5.94745C3.47755 12.0226-0.12769 25.4776 5.94745 36C12.0226 46.5224 25.4776 50.1277 36 44.0525C46.5224 37.9774 50.1277 24.5224 44.0525 14C37.9774 3.47755 24.5224-0.127691 14 5.94745Z" fill="none" opacity="1" stroke="#68c40c" stroke-linecap="butt" stroke-linejoin="round" stroke-width="2"/>
  </g>
</svg>
