<?xml version="1.0" encoding="UTF-8" standalone="no"?>
<!DOCTYPE svg PUBLIC "-//W3C//DTD SVG 1.1//EN" "http://www.w3.org/Graphics/SVG/1.1/DTD/svg11.dtd">

<svg height="100%" stroke-miterlimit="10" style="fill-rule:nonzero;clip-rule:evenodd;stroke-linecap:round;stroke-linejoin:round;" version="1.1" viewBox="0 0 30 30" width="100%" xml:space="preserve" xmlns="http://www.w3.org/2000/svg" xmlns:xlink="http://www.w3.org/1999/xlink">
  <defs>
    <clipPath id="TextBounds">
      <rect height="29.6406" width="31.1719" x="-0.585938" y="0.679688"/>
    </clipPath>
  </defs>

  <g>
    <path clip-path="url(#TextBounds)" d="M14.9648 27.0234C16.5977 27.0234 18.1348 26.7109 19.5762 26.0859C21.0176 25.4609 22.2891 24.5977 23.3906 23.4961C24.4922 22.3945 25.3555 21.123 25.9805 19.6816C26.6055 18.2402 26.918 16.7031 26.918 15.0703C26.918 13.4375 26.6055 11.9004 25.9805 10.459C25.3555 9.01758 24.4922 7.74609 23.3906 6.64453C22.2891 5.54297 21.0156 4.67969 19.5703 4.05469C18.125 3.42969 16.5859 3.11719 14.9531 3.11719C13.3203 3.11719 11.7832 3.42969 10.3418 4.05469C8.90039 4.67969 7.63086 5.54297 6.5332 6.64453C5.43555 7.74609 4.57422 9.01758 3.94922 10.459C3.32422 11.9004 3.01172 13.4375 3.01172 15.0703C3.01172 16.7031 3.32422 18.2402 3.94922 19.6816C4.57422 21.123 5.4375 22.3945 6.53906 23.4961C7.64063 24.5977 8.91211 25.4609 10.3535 26.0859C11.7949 26.7109 13.332 27.0234 14.9648 27.0234ZM14.9531 17.25C14.3281 17.25 14.0078 16.9297 13.9922 16.2891L13.8398 9.90234C13.832 9.59766 13.9316 9.34375 14.1387 9.14062C14.3457 8.9375 14.6133 8.83594 14.9414 8.83594C15.2617 8.83594 15.5293 8.93945 15.7441 9.14648C15.959 9.35352 16.0625 9.60937 16.0547 9.91406L15.8789 16.2891C15.8711 16.9297 15.5625 17.25 14.9531 17.25ZM14.9531 21.1758C14.6016 21.1758 14.2949 21.0547 14.0332 20.8125C13.7715 20.5703 13.6406 20.2734 13.6406 19.9219C13.6406 19.5781 13.7695 19.2813 14.0273 19.0312C14.2852 18.7812 14.5937 18.6562 14.9531 18.6562C15.3047 18.6562 15.6113 18.7793 15.873 19.0254C16.1348 19.2715 16.2656 19.5703 16.2656 19.9219C16.2656 20.2734 16.1348 20.5703 15.873 20.8125C15.6113 21.0547 15.3047 21.1758 14.9531 21.1758Z" fill="#ff0000" opacity="1" stroke="none"/>
  </g>
</svg>
